<svg xmlns="http://www.w3.org/2000/svg" width="230" height="35" viewBox="0 0 230 35" fill="none"><g clip-path="url(#clip0_11_619)"><path d="M0.122 29.8939L1.159 28.0372C1.342 27.7586 1.769 27.7896 1.9215 27.9134C2.013 27.9443 3.59899 29.1512 5.06299 29.1512C5.94749 29.1512 6.58799 28.5942 6.58799 27.8205C6.58799 26.8922 5.82549 26.1495 4.30049 25.5615C2.37899 24.7569 0 23.2715 0 20.5792C0 18.351 1.708 16.1229 5.09349 16.1229C7.38098 16.1229 9.14998 17.2989 9.82098 17.794C10.0955 17.9487 10.0345 18.351 9.94298 18.5058L8.84498 20.2388C8.69248 20.4863 8.29598 20.672 8.08248 20.5173C7.89948 20.4244 6.28299 19.1866 4.91049 19.1866C4.11749 19.1866 3.50749 19.7127 3.50749 20.3316C3.50749 21.1671 4.17849 21.7861 5.91699 22.4978C7.62498 23.1786 10.37 24.5712 10.37 27.6039C10.37 29.9249 8.41798 32.2458 5.15449 32.2458C2.2875 32.2458 0.701499 31.0389 0.183 30.5128C0 30.2962 -0.0609999 30.2034 0.122 29.8939Z" fill="white"></path><path d="M19.7334 16.7727C19.7334 16.5561 19.9469 16.3395 20.1604 16.3395H22.8749C23.1189 16.3395 23.3019 16.5561 23.3019 16.7727V25.8399C23.3019 27.4182 24.4609 28.656 26.0164 28.656C27.6024 28.656 28.7919 27.3872 28.7919 25.8399V16.7727C28.7919 16.5561 28.9749 16.3395 29.2189 16.3395H31.9334C32.1469 16.3395 32.3604 16.5561 32.3604 16.7727V26.0256C32.3604 29.4297 29.5239 32.2458 26.0469 32.2458C22.5699 32.2458 19.7639 29.4297 19.7639 26.0256V16.7727H19.7334Z" fill="white"></path><path d="M41.8459 29.8939L42.8829 28.0371C43.0659 27.7586 43.4929 27.7895 43.6454 27.9133C43.7369 27.9443 45.3229 29.1512 46.7869 29.1512C47.6714 29.1512 48.3119 28.5941 48.3119 27.8205C48.3119 26.8921 47.5494 26.1494 46.0244 25.5614C44.1334 24.7878 41.7544 23.3023 41.7544 20.61C41.7544 18.3819 43.4624 16.1538 46.8479 16.1538C49.1354 16.1538 50.9044 17.3298 51.5754 17.8249C51.8499 17.9796 51.7889 18.3819 51.6974 18.5367L50.5689 20.2696C50.4164 20.5172 50.0199 20.7029 49.8064 20.5482C49.6234 20.4244 48.0069 19.1865 46.6649 19.1865C45.8719 19.1865 45.2619 19.7126 45.2619 20.3315C45.2619 21.1671 45.9329 21.786 47.6714 22.4978C49.3794 23.1786 52.1244 24.5711 52.1244 27.6039C52.1244 29.9248 50.1724 32.2458 46.9089 32.2458C44.0419 32.2458 42.4559 31.0389 41.9374 30.5128C41.7239 30.2962 41.6629 30.2033 41.8459 29.8939Z" fill="white"></path><path d="M63.6533 19.6507H60.4813C60.2373 19.6507 60.0543 19.4341 60.0543 19.2175V16.7727C60.0543 16.5561 60.2373 16.3395 60.4813 16.3395H70.3023C70.5463 16.3395 70.7293 16.5561 70.7293 16.7727V19.2175C70.7293 19.4341 70.5463 19.6507 70.3023 19.6507H67.1303V31.6268C67.1303 31.8435 66.9168 32.0601 66.7033 32.0601H64.0498C63.8363 32.0601 63.6228 31.8435 63.6228 31.6268V19.6507H63.6533Z" fill="white"></path><path d="M79.7878 16.7727C79.7878 16.5561 79.9708 16.3395 80.2148 16.3395H89.3648C89.6088 16.3395 89.7918 16.5561 89.7918 16.7727V19.2175C89.7918 19.4341 89.6088 19.6507 89.3648 19.6507H83.2343V22.4359H88.2668C88.4803 22.4359 88.6938 22.6525 88.6938 22.8691V25.3138C88.6938 25.5614 88.4803 25.7471 88.2668 25.7471H83.2343V28.7798H89.3648C89.6088 28.7798 89.7918 28.9964 89.7918 29.213V31.6578C89.7918 31.8744 89.6088 32.091 89.3648 32.091H80.2148C79.9708 32.091 79.7878 31.8744 79.7878 31.6578V16.7727Z" fill="white"></path><path d="M99.5518 16.5252C99.5518 16.3086 99.7653 16.1229 99.9788 16.1229H100.528L109.342 24.7259H109.373V16.7728C109.373 16.5562 109.556 16.3395 109.8 16.3395H112.453C112.667 16.3395 112.88 16.5562 112.88 16.7728V31.8435C112.88 32.0602 112.667 32.2458 112.453 32.2458H112.087C112.026 32.2458 111.843 32.1839 111.813 32.122L103.09 23.2096H103.059V31.565C103.059 31.7816 102.876 31.9983 102.632 31.9983H100.009C99.7958 31.9983 99.5823 31.7816 99.5823 31.565L99.5518 16.5252Z" fill="white"></path><path d="M125.477 19.6507H122.305C122.061 19.6507 121.878 19.4341 121.878 19.2175V16.7727C121.878 16.5561 122.061 16.3395 122.305 16.3395H132.126C132.37 16.3395 132.553 16.5561 132.553 16.7727V19.2175C132.553 19.4341 132.37 19.6507 132.126 19.6507H128.954V31.6268C128.954 31.8435 128.74 32.0601 128.527 32.0601H125.873C125.66 32.0601 125.446 31.8435 125.446 31.6268V19.6507H125.477Z" fill="white"></path><path d="M162.29 16.7727C162.29 16.5561 162.473 16.3395 162.717 16.3395H167.872C170.464 16.3395 172.63 18.1653 172.63 20.5172C172.63 22.2502 171.105 23.488 170.068 24.045C171.227 24.5402 173.026 25.6233 173.026 27.6967C173.026 30.2033 170.83 32.0291 168.207 32.0291H162.717C162.473 32.0291 162.29 31.8125 162.29 31.5959V16.7727ZM167.445 22.7144C168.299 22.7144 169 22.0026 169 21.1052C169 20.2077 168.299 19.5888 167.445 19.5888H165.737V22.7144H167.445ZM167.75 28.8417C168.604 28.8417 169.336 28.1299 169.336 27.2015C169.336 26.3041 168.39 25.6233 167.536 25.6233H165.737V28.8417H167.75Z" fill="white"></path><path d="M182.664 16.7727C182.664 16.5561 182.847 16.3395 183.091 16.3395H185.714C185.928 16.3395 186.141 16.5561 186.141 16.7727V28.7489H191.387C191.631 28.7489 191.814 28.9655 191.814 29.1821V31.6268C191.814 31.8435 191.631 32.0601 191.387 32.0601H183.091C182.847 32.0601 182.664 31.8435 182.664 31.6268V16.7727Z" fill="white"></path><path d="M200.781 16.7727C200.781 16.5561 200.964 16.3395 201.208 16.3395H210.358C210.602 16.3395 210.785 16.5561 210.785 16.7727V19.2175C210.785 19.4341 210.602 19.6507 210.358 19.6507H204.227V22.4359H209.26C209.473 22.4359 209.687 22.6525 209.687 22.8691V25.3138C209.687 25.5614 209.473 25.7471 209.26 25.7471H204.227V28.7798H210.358C210.602 28.7798 210.785 28.9964 210.785 29.213V31.6578C210.785 31.8744 210.602 32.091 210.358 32.091H201.208C200.964 32.091 200.781 31.8744 200.781 31.6578V16.7727Z" fill="white"></path><path d="M219.691 29.8939L220.728 28.0371C220.911 27.7586 221.338 27.7895 221.491 27.9133C221.582 27.9443 223.168 29.1512 224.632 29.1512C225.516 29.1512 226.157 28.5941 226.157 27.8205C226.157 26.8921 225.394 26.1494 223.869 25.5614C221.979 24.7878 219.6 23.3023 219.6 20.61C219.6 18.3819 221.308 16.1538 224.693 16.1538C226.98 16.1538 228.749 17.3298 229.42 17.8249C229.695 17.9796 229.634 18.3819 229.542 18.5367L228.414 20.2696C228.261 20.5172 227.865 20.7029 227.651 20.5482C227.438 20.4244 225.852 19.2175 224.479 19.2175C223.686 19.2175 223.077 19.7436 223.077 20.3625C223.077 21.198 223.747 21.8169 225.486 22.5287C227.194 23.2095 229.939 24.6021 229.939 27.6348C229.939 29.9558 227.987 32.2767 224.723 32.2767C221.856 32.2767 220.271 31.0698 219.752 30.5437C219.6 30.2962 219.508 30.2033 219.691 29.8939Z" fill="white"></path><path d="M152.5 31.9363H151.097C150.761 31.9363 150.456 31.7506 150.304 31.4102L143.929 17.6702C143.655 17.0822 144.082 16.4014 144.722 16.4014H146.186C146.522 16.4014 146.827 16.618 146.979 16.9275L153.262 30.6675C153.567 31.2555 153.14 31.9363 152.5 31.9363Z" fill="white"></path><path d="M139.751 35C139.995 34.7833 140.208 34.5358 140.422 34.2882C141.245 33.3598 142.038 32.4005 142.709 31.3483C143.167 30.6056 143.594 29.801 143.868 28.9655C144.082 28.2847 144.234 27.5729 144.143 26.8302C144.021 25.4376 143.289 24.4783 142.008 23.9522C141.947 23.9213 141.947 23.9213 141.977 23.8594C142.099 23.3952 142.374 23.0238 142.679 22.7144C142.923 22.4668 143.197 22.2502 143.502 22.0336C143.533 22.0026 143.563 22.0026 143.594 21.9717C143.685 21.9098 143.716 21.8169 143.624 21.7241C143.502 21.6003 143.38 21.5075 143.258 21.4146C143.197 21.3528 143.075 21.3837 142.984 21.4765C142.892 21.5694 142.801 21.6622 142.709 21.7551C142.252 22.2192 141.855 22.7144 141.52 23.2714C141.093 24.0141 140.818 24.8497 140.666 25.6852C140.513 26.5207 140.452 27.3563 140.483 28.1918C140.483 28.2228 140.483 28.2228 140.483 28.2537C140.483 28.2537 140.483 28.2537 140.483 28.2847C139.873 26.8302 139.629 25.3757 140.147 23.8594C139.781 23.9213 139.476 24.076 139.171 24.2617C138.409 24.7259 137.921 25.4067 137.677 26.2732C137.463 26.9849 137.402 27.6967 137.494 28.4085C137.555 28.9655 137.738 29.4606 137.951 29.9558C138.165 30.42 138.47 30.8532 138.775 31.2555C139.263 31.9673 139.659 32.7409 139.812 33.5764C139.903 34.0097 139.903 34.4739 139.751 34.9071C139.751 34.9381 139.751 34.969 139.751 35Z" fill="#54AB70"></path><path d="M0.0305358 4.73475L2.13503 0.0928382C2.13503 0.0309461 2.19603 0 2.22653 0H2.28753C2.31803 0 2.37903 0.0309461 2.40953 0.0618921L4.48353 4.7038C4.51403 4.79664 4.48353 4.88948 4.36153 4.88948H3.93453C3.84303 4.88948 3.81253 4.85853 3.78203 4.79664L3.35503 3.86826H1.12853C1.00653 4.17772 0.854034 4.48718 0.701534 4.82759C0.671034 4.88948 0.640534 4.92042 0.549035 4.92042H0.122036C0.0305358 4.92042 -0.0304641 4.82759 0.0305358 4.73475ZM3.11103 3.28028L2.25703 1.36163H2.22653L1.40303 3.24934H3.11103V3.28028Z" fill="#54AB70"></path><path d="M7.35046 0.185674C7.35046 0.123782 7.41146 0.0618896 7.47246 0.0618896H7.92996C7.99096 0.0618896 8.05196 0.123782 8.05196 0.185674V4.23961H9.91246C9.97346 4.23961 10.0345 4.3015 10.0345 4.36339V4.73475C10.0345 4.79664 9.97346 4.85853 9.91246 4.85853H7.47246C7.41146 4.85853 7.35046 4.79664 7.35046 4.73475V0.185674Z" fill="#54AB70"></path><path d="M13.298 0.711757H12.2C12.139 0.711757 12.078 0.649865 12.078 0.587973V0.185674C12.078 0.123782 12.139 0.0618896 12.2 0.0618896H15.128C15.189 0.0618896 15.25 0.123782 15.25 0.185674V0.587973C15.25 0.649865 15.189 0.711757 15.128 0.711757H14.03V4.76569C14.03 4.82758 13.969 4.88948 13.908 4.88948H13.4505C13.3895 4.88948 13.3285 4.82758 13.3285 4.76569V0.711757H13.298Z" fill="#54AB70"></path><path d="M18.178 0.185674C18.178 0.123782 18.239 0.0618896 18.3 0.0618896H21.045C21.106 0.0618896 21.167 0.123782 21.167 0.185674V0.587973C21.167 0.649865 21.106 0.711757 21.045 0.711757H18.8795V2.13528H20.7095C20.7705 2.13528 20.8315 2.19717 20.8315 2.25906V2.66136C20.8315 2.72325 20.7705 2.78514 20.7095 2.78514H18.8795V4.27055H21.045C21.106 4.27055 21.167 4.33245 21.167 4.39434V4.76569C21.167 4.82758 21.106 4.88948 21.045 4.88948H18.3C18.239 4.88948 18.178 4.82758 18.178 4.76569V0.185674Z" fill="#54AB70"></path><path d="M24.3695 0.185674C24.3695 0.123782 24.4305 0.0618896 24.4915 0.0618896H26.352C27.1755 0.0618896 27.8465 0.711757 27.8465 1.5473C27.8465 2.19717 27.4195 2.72325 26.84 2.93987L27.7855 4.7038C27.8465 4.79664 27.7855 4.88948 27.6635 4.88948H27.145C27.084 4.88948 27.0535 4.85853 27.023 4.82758L26.108 3.00177H25.071V4.76569C25.071 4.82758 25.01 4.88948 24.949 4.88948H24.4915C24.4305 4.88948 24.3695 4.82758 24.3695 4.76569V0.185674ZM26.291 2.41379C26.7485 2.41379 27.1145 2.04244 27.1145 1.5473C27.1145 1.08311 26.718 0.711757 26.291 0.711757H25.071V2.38284H26.291V2.41379Z" fill="#54AB70"></path><path d="M31.0795 0.123784C31.0795 0.0618921 31.1405 0 31.2015 0H31.3845L34.343 3.46596V0.185676C34.343 0.123784 34.404 0.0618921 34.465 0.0618921H34.892C34.953 0.0618921 35.014 0.123784 35.014 0.185676V4.82759C35.014 4.88948 34.953 4.95137 34.892 4.95137H34.709L31.7505 1.39257V4.76569C31.7505 4.82759 31.6895 4.88948 31.6285 4.88948H31.2015C31.1405 4.88948 31.0795 4.82759 31.0795 4.76569V0.123784Z" fill="#54AB70"></path><path d="M37.9114 4.73481L40.0159 0.092898C40.0464 0.0619519 40.1074 0.0310059 40.1379 0.0310059H40.1989C40.2294 0.0310059 40.2904 0.0619519 40.3209 0.092898L42.3949 4.73481C42.4254 4.82765 42.3949 4.92048 42.2729 4.92048H41.8459C41.7544 4.92048 41.7239 4.88954 41.6934 4.82765L41.2664 3.86832H39.0399C38.9179 4.17778 38.7654 4.48724 38.6129 4.82765C38.5824 4.88954 38.5519 4.92048 38.4604 4.92048H38.0334C37.9419 4.92048 37.8809 4.82765 37.9114 4.73481ZM40.9919 3.28034L40.1379 1.39263H40.1074L39.2839 3.28034H40.9919Z" fill="#54AB70"></path><path d="M45.6585 0.711757H44.53C44.469 0.711757 44.408 0.649865 44.408 0.587973V0.185674C44.408 0.123782 44.469 0.0618896 44.53 0.0618896H47.458C47.519 0.0618896 47.58 0.123782 47.58 0.185674V0.587973C47.58 0.649865 47.519 0.711757 47.458 0.711757H46.36V4.76569C46.36 4.82758 46.299 4.88948 46.238 4.88948H45.7805C45.7195 4.88948 45.6585 4.82758 45.6585 4.76569V0.711757Z" fill="#54AB70"></path><path d="M50.5383 0.185674C50.5383 0.123782 50.5993 0.0618896 50.6603 0.0618896H51.1178C51.1788 0.0618896 51.2398 0.123782 51.2398 0.185674V4.76569C51.2398 4.82758 51.1788 4.88948 51.1178 4.88948H50.6603C50.5993 4.88948 50.5383 4.82758 50.5383 4.76569V0.185674Z" fill="#54AB70"></path><path d="M54.1068 0.247566C54.0763 0.154728 54.1068 0.0618896 54.2288 0.0618896H54.7168C54.7778 0.0618896 54.8083 0.0928357 54.8388 0.123782L56.3333 3.5588H56.3638L57.8583 0.123782C57.8583 0.0928357 57.9193 0.0618896 57.9803 0.0618896H58.4683C58.5598 0.0618896 58.6208 0.154728 58.5903 0.247566L56.4858 4.88948C56.4553 4.92042 56.4248 4.95137 56.3638 4.95137H56.3028C56.2418 4.95137 56.2113 4.92042 56.1808 4.88948L54.1068 0.247566Z" fill="#54AB70"></path><path d="M60.5119 4.73481L62.6164 0.092898C62.6469 0.0619519 62.7079 0.0310059 62.7384 0.0310059H62.7994C62.8299 0.0310059 62.8909 0.0619519 62.9214 0.092898L64.9954 4.73481C65.0259 4.82765 64.9954 4.92048 64.8734 4.92048H64.4464C64.3549 4.92048 64.3244 4.88954 64.2939 4.82765L63.8669 3.86832H61.6099C61.4879 4.17778 61.3354 4.48724 61.1829 4.82765C61.1524 4.88954 61.1219 4.92048 61.0304 4.92048H60.6034C60.5119 4.92048 60.4509 4.82765 60.5119 4.73481ZM63.5924 3.28034L62.7384 1.39263H62.7079L61.8844 3.28034H63.5924Z" fill="#54AB70"></path><path d="M67.5269 4.20867C67.5879 4.11583 67.6489 4.02299 67.7099 3.93015C67.7709 3.83731 67.8624 3.80637 67.9539 3.86826C67.9844 3.8992 68.5334 4.33245 69.0519 4.33245C69.5094 4.33245 69.8144 4.05393 69.8144 3.68258C69.8144 3.28028 69.4484 3.00177 68.7774 2.72325C68.0759 2.41379 67.5269 2.07339 67.5269 1.26879C67.5269 0.742706 67.9234 0 69.0214 0C69.6924 0 70.2109 0.371353 70.2719 0.402299C70.3329 0.433245 70.3939 0.526083 70.3024 0.649867C70.2414 0.742706 70.1804 0.835544 70.1194 0.897436C70.0584 0.990274 69.9669 1.02122 69.8754 0.959328C69.8144 0.928382 69.3569 0.618921 68.9604 0.618921C68.3809 0.618921 68.1979 0.990274 68.1979 1.23784C68.1979 1.64014 68.5029 1.88771 69.0519 2.10433C69.8449 2.44474 70.5159 2.81609 70.5159 3.65164C70.5159 4.3634 69.8754 4.95137 68.9909 4.95137C68.1674 4.95137 67.6489 4.51813 67.5269 4.39434C67.4964 4.39434 67.4659 4.33245 67.5269 4.20867Z" fill="#54AB70"></path></g><defs><clipPath id="clip0_11_619"><rect width="230" height="35" fill="white"></rect></clipPath></defs></svg>