<svg xmlns="http://www.w3.org/2000/svg" xmlns:xlink="http://www.w3.org/1999/xlink" id="Capa_1" x="0px" y="0px" viewBox="0 0 992.1 283.5" style="enable-background:new 0 0 992.1 283.5;" xml:space="preserve"><style type="text/css">	.st0{fill:url(#SVGID_1_);}	.st1{fill:url(#SVGID_2_);}	.st2{fill:url(#SVGID_3_);}	.st3{fill:url(#SVGID_4_);}	.st4{fill:url(#SVGID_5_);}	.st5{fill:url(#SVGID_6_);}	.st6{fill:url(#SVGID_7_);}	.st7{fill:url(#SVGID_8_);}	.st8{fill:url(#SVGID_9_);}	.st9{fill:url(#SVGID_10_);}	.st10{fill:url(#SVGID_11_);}	.st11{fill:url(#SVGID_12_);}	.st12{fill:url(#SVGID_13_);}	.st13{fill:url(#SVGID_14_);}	.st14{fill:url(#SVGID_15_);}	.st15{fill:url(#SVGID_16_);}	.st16{fill:url(#SVGID_17_);}	.st17{fill:url(#SVGID_18_);}	.st18{fill:url(#SVGID_19_);}	.st19{fill:url(#SVGID_20_);}	.st20{fill:url(#SVGID_21_);}	.st21{fill:url(#SVGID_22_);}	.st22{fill:url(#SVGID_23_);}	.st23{fill:url(#SVGID_24_);}	.st24{fill:url(#SVGID_25_);}	.st25{fill:url(#SVGID_26_);}	.st26{fill:url(#SVGID_27_);}	.st27{fill:url(#SVGID_28_);}	.st28{fill:url(#SVGID_29_);}	.st29{fill:url(#SVGID_30_);}	.st30{fill:url(#SVGID_31_);}	.st31{fill:#959CA2;}	.st32{fill:#9C9B9B;}	.st33{fill:#0096AB;}</style><g id="conectores"></g><g id="verdes"></g><g id="blancos"></g><g>			<linearGradient id="SVGID_1_" gradientUnits="userSpaceOnUse" x1="575.824" y1="383.1334" x2="586.954" y2="383.1334" gradientTransform="matrix(0.5507 -2.8009 -2.5592 -0.5032 1580.4414 1992.7479)">		<stop offset="0" style="stop-color:#739524"></stop>		<stop offset="0.3538" style="stop-color:#568B47"></stop>		<stop offset="0.7818" style="stop-color:#2A8261"></stop>		<stop offset="1" style="stop-color:#037F6A"></stop>	</linearGradient>	<polygon class="st0" points="925.1,156.3 918.9,187.5 915.2,186.7 921.3,155.5  "></polygon>			<linearGradient id="SVGID_2_" gradientUnits="userSpaceOnUse" x1="668.1219" y1="600.8235" x2="679.2528" y2="600.8235" gradientTransform="matrix(-1.0987 1.2021 1.9252 1.7596 531.41 -1748.4762)">		<stop offset="0" style="stop-color:#F7F7F7"></stop>		<stop offset="0.1035" style="stop-color:#EFF0F0"></stop>		<stop offset="0.6975" style="stop-color:#C4CBC8"></stop>		<stop offset="1" style="stop-color:#B3BDB9"></stop>	</linearGradient>	<polygon class="st1" points="940.4,124 952.7,110.7 955.4,113.2 943.2,126.6  "></polygon>			<linearGradient id="SVGID_3_" gradientUnits="userSpaceOnUse" x1="554.9424" y1="632.3571" x2="566.0728" y2="632.3571" gradientTransform="matrix(-1.1544 0.4741 0.9909 2.4126 991.6296 -1560.0515)">		<stop offset="0" style="stop-color:#F7F7F7"></stop>		<stop offset="0.1035" style="stop-color:#EFF0F0"></stop>		<stop offset="0.6975" style="stop-color:#C4CBC8"></stop>		<stop offset="1" style="stop-color:#B3BDB9"></stop>	</linearGradient>	<polygon class="st2" points="964.1,232.2 976.8,227 978.3,230.4 965.4,235.7  "></polygon>			<linearGradient id="SVGID_4_" gradientUnits="userSpaceOnUse" x1="768.3681" y1="340.363" x2="779.4982" y2="340.363" gradientTransform="matrix(0.8913 -0.4534 -1.1824 -2.3248 653.507 1358.3419)">		<stop offset="0" style="stop-color:#F7F7F7"></stop>		<stop offset="0.1035" style="stop-color:#EFF0F0"></stop>		<stop offset="0.6975" style="stop-color:#C4CBC8"></stop>		<stop offset="1" style="stop-color:#B3BDB9"></stop>	</linearGradient>	<polygon class="st3" points="946.7,215.3 936.8,220.4 935.1,217.1 945,212  "></polygon>			<linearGradient id="SVGID_5_" gradientUnits="userSpaceOnUse" x1="686.4341" y1="388.994" x2="697.5631" y2="388.994" gradientTransform="matrix(1.1873 -0.8943 -1.5691 -2.0834 630.4511 1552.7941)">		<stop offset="0" style="stop-color:#739524"></stop>		<stop offset="0.3538" style="stop-color:#568B47"></stop>		<stop offset="0.7818" style="stop-color:#2A8261"></stop>		<stop offset="1" style="stop-color:#037F6A"></stop>	</linearGradient>	<polygon class="st4" points="849.4,120 836.2,130 834,127 847.2,117  "></polygon>			<linearGradient id="SVGID_6_" gradientUnits="userSpaceOnUse" x1="763.9157" y1="410.9926" x2="775.0443" y2="410.9926" gradientTransform="matrix(1.8318 -0.6114 -0.8258 -2.474 -208.0235 1565.7366)">		<stop offset="0" style="stop-color:#739524"></stop>		<stop offset="0.3538" style="stop-color:#568B47"></stop>		<stop offset="0.7818" style="stop-color:#2A8261"></stop>		<stop offset="1" style="stop-color:#037F6A"></stop>	</linearGradient>	<polygon class="st5" points="872.8,76.8 852.6,83.7 851.4,80.1 871.6,73.3  "></polygon>			<linearGradient id="SVGID_7_" gradientUnits="userSpaceOnUse" x1="982.5205" y1="592.9496" x2="993.6497" y2="592.9496" gradientTransform="matrix(0.3882 1.0744 2.453 -0.8863 -988.292 -439.9751)">		<stop offset="0" style="stop-color:#739524"></stop>		<stop offset="0.3538" style="stop-color:#568B47"></stop>		<stop offset="0.7818" style="stop-color:#2A8261"></stop>		<stop offset="1" style="stop-color:#037F6A"></stop>	</linearGradient>	<polygon class="st6" points="850.2,102.7 845.8,90.7 849.4,89.5 853.6,101.5  "></polygon>			<linearGradient id="SVGID_8_" gradientUnits="userSpaceOnUse" x1="1119.1813" y1="506.8593" x2="1130.3092" y2="506.8593" gradientTransform="matrix(0.7112 0.3792 1.2271 -2.3015 -543.4904 785.117)">		<stop offset="0" style="stop-color:#739524"></stop>		<stop offset="0.3538" style="stop-color:#568B47"></stop>		<stop offset="0.7818" style="stop-color:#2A8261"></stop>		<stop offset="1" style="stop-color:#037F6A"></stop>	</linearGradient>	<polygon class="st7" points="881.5,48.9 873.6,44.7 875.4,41.3 883.2,45.6  "></polygon>			<linearGradient id="SVGID_9_" gradientUnits="userSpaceOnUse" x1="822.0537" y1="445.9175" x2="833.1823" y2="445.9175" gradientTransform="matrix(2.2121 0.1155 0.136 -2.6046 -1015.1727 1180.3141)">		<stop offset="0" style="stop-color:#019BBF"></stop>		<stop offset="1" style="stop-color:#2A5C80"></stop>	</linearGradient>	<polygon class="st8" points="888.4,117 863.8,115.8 864,111.9 888.6,113.2  "></polygon>			<linearGradient id="SVGID_10_" gradientUnits="userSpaceOnUse" x1="927.931" y1="516.0726" x2="939.0587" y2="516.0726" gradientTransform="matrix(1.3923 0.775 1.2685 -2.279 -1059.0581 532.5167)">		<stop offset="0" style="stop-color:#019BBF"></stop>		<stop offset="1" style="stop-color:#2A5C80"></stop>	</linearGradient>	<polygon class="st9" points="902.1,85.8 886.6,77.2 888.4,73.9 903.9,82.5  "></polygon>			<linearGradient id="SVGID_11_" gradientUnits="userSpaceOnUse" x1="835.8484" y1="690.1207" x2="846.9767" y2="690.1207" gradientTransform="matrix(-0.3536 0.6391 2.2821 1.2628 -374.2445 -1309.6802)">		<stop offset="0" style="stop-color:#019BBF"></stop>		<stop offset="1" style="stop-color:#2A5C80"></stop>	</linearGradient>	<polygon class="st10" points="899.5,102.3 903.4,95.1 906.7,96.9 902.8,104.1  "></polygon>			<linearGradient id="SVGID_12_" gradientUnits="userSpaceOnUse" x1="816.5693" y1="594.6868" x2="827.6946" y2="594.6868" gradientTransform="matrix(1.0974 3.3162 2.4761 -0.8194 -1429.3291 -2070.261)">		<stop offset="0" style="stop-color:#019BBF"></stop>		<stop offset="1" style="stop-color:#2A5C80"></stop>	</linearGradient>	<polygon class="st11" points="949.7,187.8 937.5,151 941.1,149.8 953.3,186.7  "></polygon>			<linearGradient id="SVGID_13_" gradientUnits="userSpaceOnUse" x1="546.0572" y1="432.2599" x2="557.186" y2="432.2599" gradientTransform="matrix(0.3075 -0.8505 -2.4528 -0.8868 1774.6423 911.9777)">		<stop offset="0" style="stop-color:#019BBF"></stop>		<stop offset="1" style="stop-color:#2A5C80"></stop>	</linearGradient>	<polygon class="st12" points="887.5,55.5 884.1,64.9 880.5,63.6 883.9,54.1  "></polygon>			<radialGradient id="SVGID_14_" cx="888.8834" cy="271.3362" r="10.8949" fx="892.2406" fy="268.3097" gradientTransform="matrix(1.018 0 0 -0.9883 -11.9369 398.9767)" gradientUnits="userSpaceOnUse">		<stop offset="0" style="stop-color:#F7F7F7"></stop>		<stop offset="5.799156e-02" style="stop-color:#E9EDE4"></stop>		<stop offset="0.2257" style="stop-color:#C6D4B4"></stop>		<stop offset="0.3925" style="stop-color:#A8BF8C"></stop>		<stop offset="0.5555" style="stop-color:#92AF6D"></stop>		<stop offset="0.7135" style="stop-color:#81A357"></stop>		<stop offset="0.8643" style="stop-color:#779C4A"></stop>		<stop offset="1" style="stop-color:#749A45"></stop>	</radialGradient>	<ellipse class="st13" cx="892.6" cy="131.7" rx="10.2" ry="10.1"></ellipse>			<radialGradient id="SVGID_15_" cx="828.2945" cy="269.9367" r="8.3189" fx="830.8579" fy="267.6258" gradientTransform="matrix(1.018 0 0 -0.9883 -11.9369 398.9767)" gradientUnits="userSpaceOnUse">		<stop offset="0" style="stop-color:#F7F7F7"></stop>		<stop offset="5.799156e-02" style="stop-color:#E9EDE4"></stop>		<stop offset="0.2257" style="stop-color:#C6D4B4"></stop>		<stop offset="0.3925" style="stop-color:#A8BF8C"></stop>		<stop offset="0.5555" style="stop-color:#92AF6D"></stop>		<stop offset="0.7135" style="stop-color:#81A357"></stop>		<stop offset="0.8643" style="stop-color:#779C4A"></stop>		<stop offset="1" style="stop-color:#749A45"></stop>	</radialGradient>	<ellipse class="st14" cx="831" cy="132.9" rx="7.8" ry="7.7"></ellipse>			<radialGradient id="SVGID_16_" cx="842.9027" cy="318.4283" r="8.1027" fx="845.3995" fy="316.1774" gradientTransform="matrix(1.018 0 0 -0.9883 -11.9369 398.9767)" gradientUnits="userSpaceOnUse">		<stop offset="0" style="stop-color:#F7F7F7"></stop>		<stop offset="5.799156e-02" style="stop-color:#E9EDE4"></stop>		<stop offset="0.2257" style="stop-color:#C6D4B4"></stop>		<stop offset="0.3925" style="stop-color:#A8BF8C"></stop>		<stop offset="0.5555" style="stop-color:#92AF6D"></stop>		<stop offset="0.7135" style="stop-color:#81A357"></stop>		<stop offset="0.8643" style="stop-color:#779C4A"></stop>		<stop offset="1" style="stop-color:#749A45"></stop>	</radialGradient>	<ellipse class="st15" cx="845.8" cy="84.9" rx="7.5" ry="7.5"></ellipse>			<radialGradient id="SVGID_17_" cx="866.2716" cy="363.7855" r="8.1027" fx="868.7683" fy="361.5346" gradientTransform="matrix(1.018 0 0 -0.9883 -11.9369 398.9767)" gradientUnits="userSpaceOnUse">		<stop offset="0" style="stop-color:#F7F7F7"></stop>		<stop offset="5.799156e-02" style="stop-color:#E9EDE4"></stop>		<stop offset="0.2257" style="stop-color:#C6D4B4"></stop>		<stop offset="0.3925" style="stop-color:#A8BF8C"></stop>		<stop offset="0.5555" style="stop-color:#92AF6D"></stop>		<stop offset="0.7135" style="stop-color:#81A357"></stop>		<stop offset="0.8643" style="stop-color:#779C4A"></stop>		<stop offset="1" style="stop-color:#749A45"></stop>	</radialGradient>	<ellipse class="st16" cx="869.7" cy="40" rx="7.5" ry="7.5"></ellipse>			<radialGradient id="SVGID_18_" cx="904.2924" cy="211.0456" r="12.7353" fx="908.2166" fy="207.5079" gradientTransform="matrix(1.0392 0 0 -1.0103 -25.8876 410.2845)" gradientUnits="userSpaceOnUse">		<stop offset="0" style="stop-color:#F7F7F7"></stop>		<stop offset="5.799156e-02" style="stop-color:#E9EDE4"></stop>		<stop offset="0.2257" style="stop-color:#C6D4B4"></stop>		<stop offset="0.3925" style="stop-color:#A8BF8C"></stop>		<stop offset="0.5555" style="stop-color:#92AF6D"></stop>		<stop offset="0.7135" style="stop-color:#81A357"></stop>		<stop offset="0.8643" style="stop-color:#779C4A"></stop>		<stop offset="1" style="stop-color:#749A45"></stop>	</radialGradient>	<ellipse class="st17" cx="913.5" cy="198" rx="12.2" ry="12"></ellipse>			<radialGradient id="SVGID_19_" cx="962.2734" cy="305.3107" r="9.6707" gradientTransform="matrix(1 0 0 -1 0 405.2189)" gradientUnits="userSpaceOnUse">		<stop offset="0" style="stop-color:#F7F7F7"></stop>		<stop offset="0.1035" style="stop-color:#EFF0F0"></stop>		<stop offset="0.6975" style="stop-color:#C4CBC8"></stop>		<stop offset="1" style="stop-color:#B3BDB9"></stop>	</radialGradient>	<ellipse class="st18" cx="960.3" cy="104.1" rx="10.8" ry="10.7"></ellipse>			<radialGradient id="SVGID_20_" cx="954.743" cy="268.8813" r="7.8998" gradientTransform="matrix(1 0 0 -1 0 405.2189)" gradientUnits="userSpaceOnUse">		<stop offset="0" style="stop-color:#F7F7F7"></stop>		<stop offset="0.1035" style="stop-color:#EFF0F0"></stop>		<stop offset="0.6975" style="stop-color:#C4CBC8"></stop>		<stop offset="1" style="stop-color:#B3BDB9"></stop>	</radialGradient>	<ellipse class="st19" cx="953.1" cy="139.6" rx="8.9" ry="8.7"></ellipse>			<radialGradient id="SVGID_21_" cx="927.8286" cy="185.7088" r="13.0144" gradientTransform="matrix(1 0 0 -1 0 405.2189)" gradientUnits="userSpaceOnUse">		<stop offset="0" style="stop-color:#F7F7F7"></stop>		<stop offset="0.1035" style="stop-color:#EFF0F0"></stop>		<stop offset="0.6975" style="stop-color:#C4CBC8"></stop>		<stop offset="1" style="stop-color:#B3BDB9"></stop>	</radialGradient>	<ellipse class="st20" cx="925.2" cy="225" rx="14.6" ry="14.4"></ellipse>			<radialGradient id="SVGID_22_" cx="985.3229" cy="183.4682" r="7.3758" gradientTransform="matrix(1 0 0 -1 0 405.2189)" gradientUnits="userSpaceOnUse">		<stop offset="0" style="stop-color:#F7F7F7"></stop>		<stop offset="0.1035" style="stop-color:#EFF0F0"></stop>		<stop offset="0.6975" style="stop-color:#C4CBC8"></stop>		<stop offset="1" style="stop-color:#B3BDB9"></stop>	</radialGradient>	<ellipse class="st21" cx="983.9" cy="224.9" rx="8.3" ry="8.1"></ellipse>			<radialGradient id="SVGID_23_" cx="931.7584" cy="199.6182" r="16.1923" fx="936.7478" fy="195.1202" gradientTransform="matrix(1.065 0 0 -1.0777 -41.9245 448.6198)" gradientUnits="userSpaceOnUse">		<stop offset="0" style="stop-color:#F7F7F7"></stop>		<stop offset="6.931335e-02" style="stop-color:#E1EDEF"></stop>		<stop offset="0.235" style="stop-color:#B0D8DF"></stop>		<stop offset="0.3999" style="stop-color:#88C7D1"></stop>		<stop offset="0.5609" style="stop-color:#69B9C7"></stop>		<stop offset="0.7169" style="stop-color:#53B0BF"></stop>		<stop offset="0.8659" style="stop-color:#46AABB"></stop>		<stop offset="1" style="stop-color:#41A8B9"></stop>	</radialGradient>	<ellipse class="st22" cx="949.8" cy="234.8" rx="15.8" ry="16.2"></ellipse>			<radialGradient id="SVGID_24_" cx="907.7715" cy="279.8911" r="12.6738" fx="911.6768" fy="276.3705" gradientTransform="matrix(1.065 0 0 -1.0777 -41.9245 448.6199)" gradientUnits="userSpaceOnUse">		<stop offset="0" style="stop-color:#F7F7F7"></stop>		<stop offset="6.931335e-02" style="stop-color:#E1EDEF"></stop>		<stop offset="0.235" style="stop-color:#B0D8DF"></stop>		<stop offset="0.3999" style="stop-color:#88C7D1"></stop>		<stop offset="0.5609" style="stop-color:#69B9C7"></stop>		<stop offset="0.7169" style="stop-color:#53B0BF"></stop>		<stop offset="0.8659" style="stop-color:#46AABB"></stop>		<stop offset="1" style="stop-color:#41A8B9"></stop>	</radialGradient>	<ellipse class="st23" cx="925.4" cy="145.6" rx="10.8" ry="11.1"></ellipse>			<radialGradient id="SVGID_25_" cx="953.2713" cy="198.2667" r="20.6484" fx="959.634" fy="192.5309" gradientTransform="matrix(1.018 0 0 -0.9883 -11.9369 398.9767)" gradientUnits="userSpaceOnUse">		<stop offset="0" style="stop-color:#F7F7F7"></stop>		<stop offset="6.931335e-02" style="stop-color:#E1EDEF"></stop>		<stop offset="0.235" style="stop-color:#B0D8DF"></stop>		<stop offset="0.3999" style="stop-color:#88C7D1"></stop>		<stop offset="0.5609" style="stop-color:#69B9C7"></stop>		<stop offset="0.7169" style="stop-color:#53B0BF"></stop>		<stop offset="0.8659" style="stop-color:#46AABB"></stop>		<stop offset="1" style="stop-color:#41A8B9"></stop>	</radialGradient>	<ellipse class="st24" cx="957.8" cy="204.6" rx="19.2" ry="19.1"></ellipse>			<radialGradient id="SVGID_26_" cx="925.5346" cy="273.1559" r="16.3624" fx="930.5764" fy="268.6108" gradientTransform="matrix(1.0308 0 0 -1.0128 -20.4196 412.431)" gradientUnits="userSpaceOnUse">		<stop offset="0" style="stop-color:#F7F7F7"></stop>		<stop offset="6.931335e-02" style="stop-color:#E1EDEF"></stop>		<stop offset="0.235" style="stop-color:#B0D8DF"></stop>		<stop offset="0.3999" style="stop-color:#88C7D1"></stop>		<stop offset="0.5609" style="stop-color:#69B9C7"></stop>		<stop offset="0.7169" style="stop-color:#53B0BF"></stop>		<stop offset="0.8659" style="stop-color:#46AABB"></stop>		<stop offset="1" style="stop-color:#41A8B9"></stop>	</radialGradient>	<circle class="st25" cx="933" cy="137.1" r="15.5"></circle>			<radialGradient id="SVGID_27_" cx="887.5449" cy="303.1776" r="13.0654" fx="891.5709" fy="299.5482" gradientTransform="matrix(1.0468 0 0 -1.0418 -29.4372 428.7089)" gradientUnits="userSpaceOnUse">		<stop offset="0" style="stop-color:#F7F7F7"></stop>		<stop offset="6.931335e-02" style="stop-color:#E1EDEF"></stop>		<stop offset="0.235" style="stop-color:#B0D8DF"></stop>		<stop offset="0.3999" style="stop-color:#88C7D1"></stop>		<stop offset="0.5609" style="stop-color:#69B9C7"></stop>		<stop offset="0.7169" style="stop-color:#53B0BF"></stop>		<stop offset="0.8659" style="stop-color:#46AABB"></stop>		<stop offset="1" style="stop-color:#41A8B9"></stop>	</radialGradient>	<ellipse class="st26" cx="899.2" cy="113.8" rx="12.5" ry="12.6"></ellipse>			<radialGradient id="SVGID_28_" cx="892.7331" cy="335.3203" r="9.5572" fx="895.6779" fy="332.6654" gradientTransform="matrix(1.065 0 0 -1.0777 -41.9245 448.6198)" gradientUnits="userSpaceOnUse">		<stop offset="0" style="stop-color:#F7F7F7"></stop>		<stop offset="6.931335e-02" style="stop-color:#E1EDEF"></stop>		<stop offset="0.235" style="stop-color:#B0D8DF"></stop>		<stop offset="0.3999" style="stop-color:#88C7D1"></stop>		<stop offset="0.5609" style="stop-color:#69B9C7"></stop>		<stop offset="0.7169" style="stop-color:#53B0BF"></stop>		<stop offset="0.8659" style="stop-color:#46AABB"></stop>		<stop offset="1" style="stop-color:#41A8B9"></stop>	</radialGradient>	<ellipse class="st27" cx="908.5" cy="88" rx="9.3" ry="9.6"></ellipse>			<radialGradient id="SVGID_29_" cx="864.8936" cy="341.7404" r="9.8506" fx="867.929" fy="339.004" gradientTransform="matrix(1.0647 0 0 -1.0362 -40.81 425.2402)" gradientUnits="userSpaceOnUse">		<stop offset="0" style="stop-color:#F7F7F7"></stop>		<stop offset="6.931335e-02" style="stop-color:#E1EDEF"></stop>		<stop offset="0.235" style="stop-color:#B0D8DF"></stop>		<stop offset="0.3999" style="stop-color:#88C7D1"></stop>		<stop offset="0.5609" style="stop-color:#69B9C7"></stop>		<stop offset="0.7169" style="stop-color:#53B0BF"></stop>		<stop offset="0.8659" style="stop-color:#46AABB"></stop>		<stop offset="1" style="stop-color:#41A8B9"></stop>	</radialGradient>	<ellipse class="st28" cx="879.7" cy="72" rx="9.6" ry="9.5"></ellipse>			<radialGradient id="SVGID_30_" cx="857.8262" cy="371.5975" r="7.5886" fx="860.1646" fy="369.4895" gradientTransform="matrix(1.1292 0 0 -1.086 -81.2901 454.7642)" gradientUnits="userSpaceOnUse">		<stop offset="0" style="stop-color:#F7F7F7"></stop>		<stop offset="6.931335e-02" style="stop-color:#E1EDEF"></stop>		<stop offset="0.235" style="stop-color:#B0D8DF"></stop>		<stop offset="0.3999" style="stop-color:#88C7D1"></stop>		<stop offset="0.5609" style="stop-color:#69B9C7"></stop>		<stop offset="0.7169" style="stop-color:#53B0BF"></stop>		<stop offset="0.8659" style="stop-color:#46AABB"></stop>		<stop offset="1" style="stop-color:#41A8B9"></stop>	</radialGradient>	<ellipse class="st29" cx="887.1" cy="51.9" rx="7.8" ry="7.7"></ellipse>			<radialGradient id="SVGID_31_" cx="841.6501" cy="303.6255" r="11.2734" fx="845.1241" fy="300.4938" gradientTransform="matrix(1.0647 0 0 -1.0362 -40.81 425.2402)" gradientUnits="userSpaceOnUse">		<stop offset="0" style="stop-color:#F7F7F7"></stop>		<stop offset="6.931335e-02" style="stop-color:#E1EDEF"></stop>		<stop offset="0.235" style="stop-color:#B0D8DF"></stop>		<stop offset="0.3999" style="stop-color:#88C7D1"></stop>		<stop offset="0.5609" style="stop-color:#69B9C7"></stop>		<stop offset="0.7169" style="stop-color:#53B0BF"></stop>		<stop offset="0.8659" style="stop-color:#46AABB"></stop>		<stop offset="1" style="stop-color:#41A8B9"></stop>	</radialGradient>	<ellipse class="st30" cx="855" cy="111.6" rx="11" ry="10.8"></ellipse></g><g>	<g>		<path class="st31" d="M396,218.6v-13.5l-11.7-18.5h7.5l7.5,12.6l7.4-12.6h7.4l-11.6,18.6v13.4H396z"></path>		<path class="st31" d="M412.6,206.7c0-2.1,0.5-4.1,1.5-5.9c1.1-2,2.4-3.3,4.2-4.4c1.8-1.1,3.9-1.5,6.2-1.5c3.5,0,6.3,1.2,8.6,3.5   c2.3,2.3,3.3,5.1,3.3,8.6c0,3.5-1.2,6.5-3.5,8.7c-2.3,2.3-5.1,3.5-8.6,3.5c-2.1,0-4.2-0.5-6-1.5c-1.8-1.1-3.5-2.4-4.4-4.2   C413.1,211.7,412.6,209.4,412.6,206.7z M418.8,207c0,2.3,0.6,4.1,1.7,5.3c1.1,1.2,2.4,1.8,4.1,1.8c1.7,0,3-0.6,4.1-1.8   c1.1-1.2,1.7-3,1.7-5.3c0-2.3-0.6-4.1-1.7-5.3c-1.1-1.2-2.4-1.8-4.1-1.8c-1.7,0-3,0.6-4.1,1.8S418.8,204.8,418.8,207z"></path>		<path class="st31" d="M456.4,218.6v-3.5c-0.9,1.2-2,2.3-3.3,2.9c-1.4,0.8-2.9,1.1-4.4,1.1s-3-0.3-4.2-1.1s-2.1-1.7-2.7-2.9   c-0.6-1.2-0.9-3-0.9-5.1v-14.7h6.2V206c0,3.3,0.2,5.3,0.3,6c0.2,0.8,0.6,1.4,1.2,1.8s1.4,0.6,2.3,0.6c1.1,0,2-0.3,2.9-0.9   c0.9-0.6,1.4-1.4,1.7-2.1c0.3-0.9,0.5-3,0.5-6.3v-9.8h6.2v23.1h-5.6V218.6z"></path>		<path class="st31" d="M474.3,218.6h-6.2v-23.1h5.7v3.3c0.9-1.5,1.8-2.6,2.6-3s1.7-0.8,2.7-0.8c1.4,0,2.7,0.5,4.1,1.2l-2,5.4   c-1.1-0.6-2-1.1-2.9-1.1s-1.7,0.3-2.3,0.8s-1.1,1.4-1.4,2.6c-0.3,1.2-0.5,3.8-0.5,7.8L474.3,218.6L474.3,218.6z"></path>		<path class="st31" d="M504.3,186.6v11.7c2-2.3,4.4-3.5,7.1-3.5c1.4,0,2.7,0.3,3.8,0.8c1.2,0.5,2,1.2,2.6,2s0.9,1.7,1.2,2.7   c0.2,1.1,0.3,2.6,0.3,4.7v13.5H513v-12.2c0-2.4-0.2-3.9-0.3-4.7c-0.2-0.8-0.6-1.2-1.2-1.5c-0.6-0.5-1.4-0.6-2.3-0.6   c-1.1,0-2,0.3-2.7,0.8c-0.8,0.5-1.4,1.2-1.8,2.3c-0.3,1.1-0.6,2.4-0.6,4.4v11.6H498v-32h6.3V186.6z"></path>		<path class="st31" d="M538.8,211.2l6.2,1.1c-0.8,2.3-2,3.9-3.8,5.1c-1.7,1.2-3.8,1.8-6.3,1.8c-4.1,0-7.1-1.4-8.9-3.9   c-1.5-2.1-2.3-4.8-2.3-8c0-3.9,1.1-6.9,3-9s4.5-3.3,7.7-3.3c3.5,0,6.2,1.2,8.1,3.5s3,5.7,2.9,10.5H530c0,1.8,0.6,3.2,1.5,4.2   c0.9,1.1,2.1,1.5,3.6,1.5c0.9,0,1.8-0.3,2.4-0.8C538.1,213.2,538.5,212.4,538.8,211.2z M539.1,205.1c0-1.8-0.5-3.2-1.4-4.1   c-0.9-0.9-2-1.4-3.2-1.4c-1.4,0-2.4,0.5-3.3,1.5c-0.9,0.9-1.4,2.3-1.4,3.9H539.1z"></path>		<path class="st31" d="M554.9,202.5l-5.6-1.1c0.6-2.3,1.7-3.9,3.2-5s3.8-1.7,6.8-1.7c2.7,0,4.8,0.3,6.2,0.9   c1.4,0.6,2.3,1.5,2.9,2.4c0.6,1.1,0.8,2.9,0.8,5.4v7.2c0,2.1,0.2,3.6,0.3,4.5c0.2,0.9,0.6,2,1.1,3.2h-6c-0.2-0.5-0.3-1.1-0.6-1.8   c-0.2-0.3-0.2-0.6-0.2-0.8c-1.1,1.1-2.1,1.8-3.3,2.3c-1.2,0.5-2.4,0.8-3.8,0.8c-2.4,0-4.2-0.6-5.7-2c-1.4-1.4-2.1-2.9-2.1-5   c0-1.4,0.3-2.4,0.9-3.5c0.6-1.1,1.5-1.8,2.6-2.4c1.1-0.6,2.7-1.1,4.8-1.5c2.9-0.6,4.8-1.1,6-1.5v-0.6c0-1.2-0.3-2-0.9-2.6   c-0.6-0.5-1.7-0.8-3.3-0.8c-1.1,0-2,0.2-2.6,0.6C555.6,200.3,555.2,201.5,554.9,202.5z M563,207.5c-0.8,0.3-2,0.6-3.8,0.9   c-1.7,0.3-2.9,0.8-3.3,1.1c-0.8,0.6-1.2,1.4-1.2,2.1c0,0.9,0.3,1.7,0.9,2.3c0.6,0.6,1.5,0.9,2.4,0.9c1.1,0,2.1-0.3,3.2-1.1   c0.8-0.6,1.2-1.2,1.5-2c0.2-0.5,0.3-1.5,0.3-3L563,207.5L563,207.5z"></path>		<path class="st31" d="M575,218.6v-32h6.2v32H575z"></path>		<path class="st31" d="M598.1,195.4v5h-4.2v9.3c0,2,0,3,0.2,3.3c0.2,0.3,0.3,0.6,0.6,0.8c0.3,0.2,0.6,0.3,1.1,0.3   c0.6,0,1.4-0.2,2.4-0.6l0.5,4.8c-1.4,0.6-3,0.9-4.8,0.9c-1.1,0-2.1-0.2-3-0.6c-0.9-0.3-1.5-0.9-2-1.5s-0.8-1.4-0.9-2.4   c-0.2-0.8-0.2-2.1-0.2-4.4v-10.1h-2.9v-5h2.9v-4.7l6.2-3.6v8.1h4.2V195.4z"></path>		<path class="st31" d="M608.3,186.6v11.7c2-2.3,4.4-3.5,7.1-3.5c1.4,0,2.7,0.3,3.8,0.8c1.2,0.5,2,1.2,2.6,2s0.9,1.7,1.2,2.7   c0.2,1.1,0.3,2.6,0.3,4.7v13.5H617v-12.2c0-2.4-0.2-3.9-0.3-4.7c-0.2-0.8-0.6-1.2-1.2-1.5c-0.6-0.5-1.4-0.6-2.3-0.6   c-1.1,0-2,0.3-2.7,0.8c-0.8,0.5-1.4,1.2-1.8,2.3c-0.3,1.1-0.6,2.4-0.6,4.4v11.6H602v-32h6.3V186.6z"></path>		<path class="st31" d="M641.5,195.4h5.7v3.2c2-2.4,4.4-3.8,7.2-3.8c1.5,0,2.7,0.3,3.9,0.9s2,1.5,2.7,2.7c1.1-1.2,2.1-2.1,3.3-2.7   c1.2-0.6,2.4-0.9,3.8-0.9c1.7,0,3.2,0.3,4.4,1.1s2.1,1.7,2.7,3c0.5,1.1,0.6,2.6,0.6,4.8v14.9h-6.2v-13.2c0-2.3-0.2-3.8-0.6-4.5   c-0.6-0.9-1.5-1.4-2.6-1.4c-0.9,0-1.7,0.3-2.4,0.8s-1.4,1.4-1.7,2.3c-0.3,1.1-0.5,2.6-0.5,4.8v11.1h-6.2v-12.6   c0-2.3-0.2-3.8-0.3-4.4c-0.2-0.6-0.6-1.2-1.1-1.5s-1.1-0.5-1.8-0.5c-0.9,0-1.8,0.3-2.6,0.8s-1.4,1.2-1.7,2.3   c-0.3,0.9-0.5,2.6-0.5,4.8v11.3h-6.2v-23.1H641.5z"></path>		<path class="st31" d="M686.2,202.5l-5.6-1.1c0.6-2.3,1.7-3.9,3.2-5c1.5-1.1,3.8-1.7,6.8-1.7c2.7,0,4.8,0.3,6.2,0.9   c1.4,0.6,2.3,1.5,2.9,2.4c0.6,1.1,0.8,2.9,0.8,5.4v7.2c0,2.1,0.2,3.6,0.3,4.5c0.2,0.9,0.6,2,1.1,3.2h-6c-0.2-0.5-0.3-1.1-0.6-1.8   c-0.2-0.3-0.2-0.6-0.2-0.8c-1.1,1.1-2.1,1.8-3.3,2.3s-2.4,0.8-3.8,0.8c-2.4,0-4.2-0.6-5.7-2c-1.4-1.4-2.1-2.9-2.1-5   c0-1.4,0.3-2.4,0.9-3.5c0.6-1.1,1.5-1.8,2.6-2.4c1.1-0.6,2.7-1.1,4.8-1.5c2.9-0.6,4.8-1.1,6-1.5v-0.6c0-1.2-0.3-2-0.9-2.6   c-0.6-0.5-1.7-0.8-3.3-0.8c-1.1,0-2,0.2-2.6,0.6C686.9,200.3,686.5,201.5,686.2,202.5z M694.3,207.5c-0.8,0.3-2,0.6-3.8,0.9   c-1.7,0.3-2.9,0.8-3.3,1.1c-0.8,0.6-1.2,1.4-1.2,2.1c0,0.9,0.3,1.7,0.9,2.3c0.6,0.6,1.5,0.9,2.4,0.9c1.1,0,2.1-0.3,3.2-1.1   c0.8-0.6,1.2-1.2,1.5-2c0.2-0.5,0.3-1.5,0.3-3V207.5L694.3,207.5z"></path>		<path class="st31" d="M716.9,195.4v5h-4.2v9.3c0,2,0,3,0.2,3.3c0.2,0.3,0.3,0.6,0.6,0.8c0.3,0.2,0.6,0.3,1.1,0.3   c0.6,0,1.4-0.2,2.4-0.6l0.5,4.8c-1.4,0.6-3,0.9-4.8,0.9c-1.1,0-2.1-0.2-3-0.6c-0.9-0.3-1.5-0.9-2-1.5s-0.8-1.4-0.9-2.4   c-0.2-0.8-0.2-2.1-0.2-4.4v-10.1h-2.9v-5h2.9v-4.7l6.2-3.6v8.1h4.2V195.4z"></path>		<path class="st31" d="M731.8,195.4v5h-4.2v9.3c0,2,0,3,0.2,3.3c0.2,0.3,0.3,0.6,0.6,0.8c0.3,0.2,0.6,0.3,1.1,0.3   c0.6,0,1.4-0.2,2.4-0.6l0.5,4.8c-1.4,0.6-3,0.9-4.8,0.9c-1.1,0-2.1-0.2-3-0.6c-0.9-0.3-1.5-0.9-2-1.5s-0.8-1.4-0.9-2.4   c-0.2-0.8-0.2-2.1-0.2-4.4v-10.1h-2.9v-5h2.9v-4.7l6.2-3.6v8.1h4.2V195.4z"></path>		<path class="st31" d="M749.5,211.2l6.2,1.1c-0.8,2.3-2,3.9-3.8,5.1c-1.7,1.2-3.8,1.8-6.3,1.8c-4.1,0-7.1-1.4-8.9-3.9   c-1.5-2.1-2.3-4.8-2.3-8c0-3.9,1.1-6.9,3-9s4.5-3.3,7.7-3.3c3.5,0,6.2,1.2,8.1,3.5c2,2.3,3,5.7,2.9,10.5h-15.3   c0,1.8,0.6,3.2,1.5,4.2c0.9,1.1,2.1,1.5,3.6,1.5c0.9,0,1.8-0.3,2.4-0.8C748.6,213.2,749,212.4,749.5,211.2z M749.8,205.1   c0-1.8-0.5-3.2-1.4-4.1c-0.9-0.9-2-1.4-3.2-1.4c-1.4,0-2.4,0.5-3.3,1.5c-0.9,0.9-1.4,2.3-1.4,3.9H749.8z"></path>		<path class="st31" d="M766.8,218.6h-6.2v-23.1h5.7v3.3c0.9-1.5,1.8-2.6,2.6-3s1.7-0.8,2.7-0.8c1.4,0,2.7,0.5,4.1,1.2l-2,5.4   c-1.1-0.6-2-1.1-2.9-1.1c-0.9,0-1.7,0.3-2.3,0.8c-0.6,0.5-1.1,1.4-1.4,2.6c-0.3,1.2-0.5,3.8-0.5,7.8V218.6z"></path>		<path class="st31" d="M776.1,212l6.2-0.9c0.3,1.2,0.8,2.1,1.7,2.7c0.8,0.6,2,0.9,3.3,0.9c1.7,0,2.7-0.3,3.6-0.9   c0.6-0.5,0.8-0.9,0.8-1.7c0-0.5-0.2-0.9-0.5-1.2s-1.1-0.6-2.1-0.8c-5-1.1-8.1-2.1-9.5-3c-1.8-1.2-2.7-3-2.7-5.3   c0-2,0.8-3.8,2.4-5.1s4.1-2.1,7.4-2.1c3.2,0,5.6,0.5,7.1,1.5c1.5,1.1,2.6,2.6,3.2,4.5l-5.7,1.1c-0.3-0.9-0.8-1.7-1.4-2.1   c-0.8-0.5-1.7-0.8-3-0.8c-1.7,0-2.7,0.2-3.5,0.6c-0.5,0.3-0.8,0.8-0.8,1.2c0,0.5,0.2,0.8,0.6,1.1c0.6,0.5,2.4,1.1,5.7,1.7   c3.3,0.8,5.6,1.7,6.8,2.7c1.4,1.1,2,2.6,2,4.5c0,2.1-0.9,3.9-2.7,5.4c-1.8,1.5-4.4,2.3-7.8,2.3c-3.2,0-5.7-0.6-7.5-2   C777.9,215.9,776.7,214.2,776.1,212z"></path>	</g></g><g>	<path class="st32" d="M19.4,169.3c-6.2,0-12.1-0.7-16.6-2l0.5-7.6c4.9,1.7,11.1,3,16.8,3c11.1,0,20.6-4.4,20.6-16.1  c0-19.9-39.1-12.7-39.1-37.7C1.7,96.3,12.1,87,29.7,87c5.2,0,10,0.6,14.8,1.4l-0.5,7.1c-4.6-1.4-10-2.3-14.9-2.3  c-12.6,0-19.4,5.8-19.4,14.6c0,19.4,39.1,12.4,39.1,37.5C48.8,159.5,37.6,169.3,19.4,169.3"></path>	<path class="st33" d="M406.2,102.4c-6.8-2.6-14.4-4.2-22-4.2c-16.6,0-29.9,10.5-29.9,30.3c0,18.6,10.9,29.4,28.5,29.4  c4.8,0,8.9-0.7,12.7-1.9v-29.2h13.3v37.7c-8.2,3.1-18.2,4.9-27.6,4.9c-25.5,0-41.2-14.9-41.2-39.6c0-24.9,17.1-43,45.2-43  c7.9,0,15.7,1.2,22.9,3.5L406.2,102.4z"></path>	<path class="st32" d="M91.7,169.1c-20.5,0-29.2-13.3-29.2-31.3c0-20.6,14.2-32.2,31-32.2c18.9,0,29.5,11.4,29.5,31.4  C123,157.7,109.3,169.1,91.7,169.1 M92.7,111.9c-11.6,0-22,8.8-22,25.1c0,13.7,5.4,25.7,21.5,25.7c12.7,0,22.5-8.6,22.5-24.9  C114.7,121,106.4,111.9,92.7,111.9z"></path>	<path class="st32" d="M167.8,169.1c-16.5,0-25.6-7.5-25.6-21.9v-40.8h7.8v40c0,11.3,6.9,16.5,18.4,16.5c13.8,0,18.7-7.5,18.7-18.1  v-38.4h7.7v38.4C194.7,157.8,187,169.1,167.8,169.1"></path>	<polygon class="st32" points="235.4,112.6 235.4,168.3 227.6,168.3 227.6,112.6 208.1,112.6 208.1,106.4 255.1,106.4 255.1,112.6    "></polygon>	<polygon class="st32" points="314.3,168.3 314.3,139.5 278.4,139.5 278.4,168.3 270.6,168.3 270.6,106.4 278.4,106.4 278.4,133.1   314.3,133.1 314.3,106.4 322.1,106.4 322.1,168.3  "></polygon>	<polygon class="st33" points="428.7,168.3 428.7,106.4 466,106.4 466,116.5 441.9,116.5 441.9,131.6 464.9,131.6 464.9,141.4   441.9,141.4 441.9,158.1 466,158.1 466,168.3  "></polygon>	<path class="st33" d="M525.5,168.3l-21.8-33.5c-2.4-3.7-4.8-8.1-6.5-11.8h-0.1c0.2,3.5,0.4,7.3,0.4,13l0.1,32.4h-12.8v-61.9h17.6  l21.4,33c2.4,3.8,4.9,7.9,7,12.1h0.1c-0.3-3.9-0.3-9.9-0.3-17.9l-0.1-27.3h12.8v61.9H525.5z"></path>	<polygon class="st33" points="565,168.3 565,106.4 602.4,106.4 602.4,116.5 578.2,116.5 578.2,131.6 601.3,131.6 601.3,141.4   578.2,141.4 578.2,158.1 602.4,158.1 602.4,168.3  "></polygon>	<polygon class="st33" points="643.4,117.4 643.4,168.3 630.2,168.3 630.2,117.4 612.6,117.4 612.6,106.4 660.9,106.4 660.9,117.4    "></polygon>	<rect x="673.8" y="106.4" class="st33" width="13.2" height="61.9"></rect>	<path class="st33" d="M734.4,169.1c-20.7,0-31.2-11.7-31.2-30.5c0-17.5,10.4-33.1,34.2-33.1c4.1,0,9.4,0.5,13.7,1.6l-1.2,11.3  c-4.5-1.4-9-2.2-13.4-2.2c-12.4,0-19.2,8.8-19.2,21.1c0,13.3,7.3,20.3,19.9,20.3c4.8,0,9.5-1.1,13.3-2.8l1.1,11.4  C746.2,168.2,740.6,169.1,734.4,169.1"></path>	<path class="st33" d="M777.5,169.5c-4.4,0-9.5-0.7-13-1.5l0.5-11.6c3.7,1.4,8.7,2.4,14,2.4c6,0,11.7-2.6,11.7-8.7  c0-10.9-27.9-5.2-27.9-25.4c0-11.7,9.3-19.4,26-19.4c3.6,0,8.5,0.5,12.1,1.1l-0.5,11c-3.4-1.1-8.4-1.8-12.1-1.8  c-8.1,0-11.6,3.1-11.6,7.7c0,10.6,28.3,5.9,28.3,25.3C805,161.3,793.8,169.5,777.5,169.5"></path></g></svg>